<?xml version="1.0" encoding="UTF-8" standalone="no"?>
<svg width="31px" height="32px" viewBox="0 0 31 32" version="1.1" xmlns="http://www.w3.org/2000/svg" xmlns:xlink="http://www.w3.org/1999/xlink" xmlns:sketch="http://www.bohemiancoding.com/sketch/ns">
    <!-- Generator: Sketch 3.4 (15588) - http://www.bohemiancoding.com/sketch -->
    <title>account_icon</title>
    <desc>Created with Sketch.</desc>
    <defs>
        <path d="M14.9898204,30.0227519 C23.0625112,30.0227519 29.6061808,23.4213775 29.6061808,15.2772557 C29.6061808,7.13405538 23.0625112,0.53268105 14.9898204,0.53268105 C6.91803169,0.53268105 0.374362127,7.13405538 0.374362127,15.2772557 C0.374362127,23.4213775 6.91803169,30.0227519 14.9898204,30.0227519 Z M1.81137145,15.2772557 C1.81137145,7.93399855 7.71185982,1.98142605 14.9898204,1.98142605 L14.9898204,1.98142605 C22.2695851,1.98142605 28.1700735,7.93399855 28.1700735,15.2772557 L28.1700735,15.2772557 C28.1700735,22.6214344 22.2695851,28.5740069 14.9898204,28.5740069 L14.9898204,28.5740069 C7.71185982,28.5740069 1.81137145,22.6214344 1.81137145,15.2772557 L1.81137145,15.2772557 Z" id="path-1"></path>
    </defs>
    <g id="Page-1" stroke="none" stroke-width="1" fill="none" fill-rule="evenodd" sketch:type="MSPage">
        <g id="Desktop_XMAS_NoDelDay" sketch:type="MSArtboardGroup" transform="translate(-1036.000000, -51.000000)">
            <g id="main-panel" sketch:type="MSLayerGroup" transform="translate(27.000000, 46.000000)">
                <g id="admin-menu" transform="translate(928.000000, 0.000000)">
                    <g id="Account" transform="translate(62.000000, 3.000000)">
                        <g id="account_icon" transform="translate(19.000000, 0.000000)">
                            <g id="Group-5" transform="translate(0.615723, 0.629044)">
                                <mask id="mask-2" sketch:name="Clip 4" fill="white">
                                    <use xlink:href="#path-1"></use>
                                </mask>
                                <g id="Clip-4"></g>
                            </g>
                            <path d="M18.0303739,21.4500621 C19.1291042,20.2059108 19.7804041,18.2862315 19.9391697,16.7609943 C20.2521906,16.4568684 20.4497455,16.0310922 20.4497455,15.5546284 C20.4497455,15.2090308 20.3469087,14.8883163 20.1710036,14.6228973 C20.2711342,14.437657 20.3333775,14.2284553 20.3333775,14.0026649 C20.3333775,13.4801214 20.0275733,13.0322269 19.5900658,12.8303979 C19.698315,12.5677438 19.7587542,12.279285 19.7587542,11.9760808 C19.7587542,10.7641853 18.7971397,9.78084501 17.6109079,9.78084501 C17.1959523,9.78084501 16.8116673,9.90710332 16.4833111,10.1153835 C16.0936137,9.55966257 15.4594533,9.19471154 14.7395955,9.19471154 C13.6922836,9.19471154 12.822681,9.96055575 12.6323427,10.973387 C12.5691972,10.9678575 12.507856,10.9540336 12.4429064,10.9540336 C11.2566746,10.9540336 10.2950601,11.9373738 10.2950601,13.1492693 C10.2950601,13.6358707 10.4547278,14.0810003 10.7172323,14.4450298 C10.457434,14.7399397 10.2950601,15.1260874 10.2950601,15.5546284 C10.2950601,16.1684096 10.6225142,16.6983259 11.1060277,16.9886279 C11.3026805,18.4816094 11.9440576,20.2860895 12.9994882,21.4684939 C10.0686386,22.3725772 7.50854294,24.7650339 7.0187149,27.9224133 C6.81574748,29.2301545 8.30958768,30.0982956 9.27661467,30.5434253 C11.1727814,31.4152527 13.4826748,32.4843328 15.5457258,32.4999999 C17.6349371,32.5147453 19.674861,31.466862 21.6125233,30.6328198 C22.6291646,30.1941413 24.2871829,29.3057252 24.0724884,27.9224133 C23.5790521,24.7429157 20.9864816,22.3384782 18.0303739,21.4500621 Z" id="Fill-6" fill="#77BC1F" sketch:type="MSShapeGroup"></path>
                            <ellipse id="Oval-395" stroke="#77BC1F" stroke-width="2" sketch:type="MSShapeGroup" cx="15.5" cy="17.8786058" rx="14.5" ry="14.8137019"></ellipse>
                        </g>
                    </g>
                </g>
            </g>
        </g>
    </g>
</svg>