<?xml version="1.0" encoding="utf-8"?>
<!-- Generator: Adobe Illustrator 18.1.1, SVG Export Plug-In . SVG Version: 6.00 Build 0)  -->
<svg version="1.1" xmlns="http://www.w3.org/2000/svg" xmlns:xlink="http://www.w3.org/1999/xlink" x="0px" y="0px"
	 viewBox="0 0 54.4 62.2" enable-background="new 0 0 54.4 62.2" xml:space="preserve">
<g id="Layer_1">
</g>
<g id="Layer_2">
	<path fill="none" stroke="#8C8C8C" stroke-width="1.5" stroke-linecap="round" stroke-miterlimit="10" d="M11.2,43.1l1.2,9.3
		c0,0,5.2,4.3,12.8,4.3S39,53,39,53l1.5-9.9"/>
	<path fill="none" stroke="#8C8C8C" stroke-width="1.5" stroke-linecap="round" stroke-miterlimit="10" d="M11.2,42.2
		c0,0,6.4,4.3,14,4.3s15-3.7,15-3.7"/>
	
		<line fill="none" stroke="#8C8C8C" stroke-width="1.5" stroke-linecap="round" stroke-miterlimit="10" x1="25.3" y1="47" x2="25.3" y2="56.7"/>
	<path fill="none" stroke="#8C8C8C" stroke-width="1.5" stroke-linecap="round" stroke-miterlimit="10" d="M38.2,40.5
		c1.7,0.6,2.5,2,2.5,2"/>
	<path fill="none" stroke="#8C8C8C" stroke-width="1.5" stroke-linecap="round" stroke-miterlimit="10" d="M11.2,42.2
		c0,0,0.4-0.8,2-1.7"/>
	<g>
		<path fill="#8C8C8C" d="M27.7,37.2C27.6,37.2,27.6,37.2,27.7,37.2c-0.5,0-0.7-0.4-0.7-0.8c0.7-6.1,0.1-5.8-0.5-6.2
			C26,30,25.7,30,25.6,30.1c-0.8,0.3-1.4,1.9-1.7,2.8c-0.1,0.3-0.3,0.5-0.6,0.5c-0.3,0-0.6-0.1-0.7-0.4c0-0.1-0.9-1.7-2.8-1.5
			c-0.5,0.1-0.8,0.2-1,0.5c-0.5,0.6-0.4,1.6-0.4,1.9c0,0.2-0.1,0.5-0.2,0.6c-0.2,0.2-0.4,0.2-0.7,0.1c-0.8-0.3-1.7-0.2-2.2,0.2
			c-0.3,0.2-0.3,0.6-0.2,1c0.3,1.1,0.7,1.4,1.3,1.9c0.1,0.1,0.2,0.2,0.3,0.3c0.3,0.3,0.3,0.7,0.1,1c-0.3,0.3-0.7,0.3-1,0.1
			c-0.1-0.1-0.2-0.2-0.3-0.3c-0.6-0.5-1.3-1.1-1.7-2.6c-0.3-0.9,0-1.8,0.6-2.4c0.6-0.6,1.6-0.9,2.6-0.7c0-0.6,0.2-1.4,0.7-2
			c0.5-0.6,1.1-1,2-1.1c1.6-0.2,2.7,0.5,3.4,1.1c0.4-0.9,1-2,2-2.4c0.5-0.2,1.2-0.3,2.1,0.2c0.6,0.3,2,0.5,1.2,7.6
			C28.3,37,28,37.2,27.7,37.2z"/>
	</g>
	<g>
		<path fill="#8C8C8C" d="M35.5,39.5c-0.2,0-0.3-0.1-0.4-0.2c-0.3-0.2-0.3-0.7-0.1-1c1.1-1.3,3.8-5,3.8-7.4
			c-0.1-1.5-1.2-2.5-2.3-2.8c-0.5-0.1-1.6-0.3-2.3,0.8c-0.9,1.4-2.3,4.2-3.3,6.2c-0.2,0.3-0.6,0.5-0.9,0.3c-0.3-0.2-0.5-0.6-0.3-0.9
			c1-2.1,2.5-4.8,3.4-6.3c0.8-1.3,2.3-1.8,3.9-1.4c1.9,0.5,3.2,2.2,3.3,4.1c0.1,3.3-3.9,8.1-4.1,8.3C35.9,39.4,35.7,39.5,35.5,39.5z
			"/>
	</g>
	<g>
		<path fill="#8C8C8C" d="M37.2,28.2C37.2,28.2,37.2,28.2,37.2,28.2c-0.4,0-0.8-0.3-0.8-0.7l-0.2-5.1c0-0.4,0.3-0.7,0.7-0.7
			c0.4,0,0.7,0.3,0.7,0.7l0.2,5.1C37.8,27.8,37.6,28.1,37.2,28.2z"/>
	</g>
	<g>
		<path fill="#8C8C8C" d="M38.9,29.5c-0.2,0-0.4-0.1-0.5-0.2c-0.3-0.3-0.3-0.7,0-1l2.4-2.3c0.3-0.3,0.7-0.3,1,0c0.3,0.3,0.3,0.7,0,1
			l-2.4,2.3C39.3,29.5,39.1,29.5,38.9,29.5z"/>
	</g>
	<g>
		<path fill="#8C8C8C" d="M39,26.8c-0.2,0-0.4,0-0.5-0.1c-0.3-0.2-0.4-0.7-0.1-1l2-2.7c0.2-0.3,0.7-0.4,1-0.1c0.3,0.2,0.4,0.7,0.1,1
			l-2,2.7C39.3,26.6,39.1,26.7,39,26.8z"/>
	</g>
	<g>
		<path fill="#8C8C8C" d="M35.2,33c-0.2,0-0.4-0.1-0.5-0.2c-0.3-0.3-1.3-1.2-2-0.9c-0.4,0.1-0.8,0-0.9-0.4c-0.1-0.4,0-0.8,0.4-0.9
			c1.7-0.7,3.4,1.2,3.5,1.3c0.3,0.3,0.2,0.7-0.1,1C35.6,32.9,35.4,33,35.2,33z"/>
	</g>
	<g>
		<path fill="#8C8C8C" d="M36.3,37.6c-0.2,0-0.4-0.1-0.6-0.3c-0.7-1.1-1.5-1-1.6-1c-0.4,0.1-0.7-0.2-0.8-0.6
			c-0.1-0.4,0.2-0.7,0.6-0.8c0.1,0,1.7-0.3,2.9,1.6c0.2,0.3,0.1,0.7-0.2,1C36.5,37.6,36.4,37.6,36.3,37.6z"/>
	</g>
	<g>
		<path fill="#8C8C8C" d="M20.2,39.1c-0.2,0-0.4-0.1-0.6-0.3l-1.1-2.3c-0.1-0.3,0-0.6,0.3-0.8c0.3-0.1,0.7,0,0.8,0.3l1.1,2.3
			c0.1,0.3,0,0.6-0.3,0.8C20.4,39.1,20.3,39.1,20.2,39.1z"/>
	</g>
	<g>
		<path fill="#8C8C8C" d="M24.3,38.4c-0.3,0-0.6-0.2-0.7-0.5L23,34.9c-0.1-0.3,0.2-0.6,0.6-0.6c0.4,0,0.7,0.2,0.8,0.5l0.5,3.1
			C25,38.1,24.7,38.4,24.3,38.4C24.3,38.4,24.3,38.4,24.3,38.4z"/>
	</g>
	<path fill="none" stroke="#8C8C8C" stroke-width="1.5" stroke-linecap="round" stroke-miterlimit="10" d="M24.1,42.8
		c0,0,1.6-3.7,4.5-3.8c1.7,0,4.4,0.3,5.7,3.5"/>
	<path fill="none" stroke="#8C8C8C" stroke-width="1.5" stroke-linecap="round" stroke-miterlimit="10" d="M16.5,42
		c0,0,1.1-1.2,2.4-1.4c0.7,0,2.3,0.2,3.1,2.4"/>
</g>
</svg>
