<?xml version="1.0" encoding="utf-8"?>
<!-- Generator: Adobe Illustrator 18.1.0, SVG Export Plug-In . SVG Version: 6.00 Build 0)  -->
<svg version="1.1" xmlns="http://www.w3.org/2000/svg" xmlns:xlink="http://www.w3.org/1999/xlink" x="0px" y="0px"
	 viewBox="0 0 54.4 62.2" enable-background="new 0 0 54.4 62.2" xml:space="preserve">
<g id="Layer_1">
</g>
<g id="Layer_2">
	<g>
		<path fill="#8C8C8C" d="M29.4,29.2c-2.9,0-6.1-0.8-6.1-2.5c0-1.7,3.2-2.5,6.1-2.5c2.9,0,6.1,0.8,6.1,2.5
			C35.5,28.4,32.4,29.2,29.4,29.2z M29.4,25.5c-3.1,0-4.8,0.8-4.8,1.2c0,0.4,1.7,1.2,4.8,1.2c3.1,0,4.8-0.8,4.8-1.2
			C34.2,26.3,32.5,25.5,29.4,25.5z"/>
	</g>
	<g>
		<path fill="#8C8C8C" d="M29.4,31.8c-3,0-6.2-0.8-6.2-2.5c0-0.4,0.3-0.7,0.7-0.7c0.4,0,0.7,0.3,0.7,0.7c0.1,0.4,1.8,1.2,4.9,1.2
			c3.1,0,4.8-0.8,4.9-1.2c0-0.4,0.3-0.7,0.7-0.7c0.4,0,0.7,0.3,0.7,0.7C35.6,31.1,32.4,31.8,29.4,31.8z"/>
	</g>
	<g>
		<path fill="#8C8C8C" d="M29.4,38.4c-4.8,0-10-1.4-10-4.1c0-0.4,0.3-0.7,0.7-0.7c0.4,0,0.7,0.3,0.7,0.7c0,1.2,3.3,2.8,8.7,2.8
			s8.7-1.6,8.7-2.8c0-0.4,0.3-0.7,0.7-0.7c0.4,0,0.7,0.3,0.7,0.7C39.4,36.9,34.3,38.4,29.4,38.4z"/>
	</g>
	<g>
		<path fill="#8C8C8C" d="M38.8,38C38.7,38,38.7,38,38.8,38c-0.4,0-0.7-0.4-0.7-0.7c0.2-1.4,1.4-2.2,2.3-2.8c0.4-0.3,0.9-0.6,1-0.8
			c0-0.2-0.2-0.4-0.2-0.5c-0.3-0.3-0.8-0.4-1-0.3c-0.8,0.3-1.6,0.8-1.6,0.9c-0.3,0.2-0.7,0.1-0.9-0.2c-0.2-0.3-0.1-0.7,0.2-0.9
			c0,0,0.8-0.6,1.8-1c0.8-0.3,1.8,0,2.4,0.5c0.6,0.5,0.8,1.1,0.7,1.7c-0.1,0.7-0.8,1.1-1.5,1.6c-0.8,0.5-1.7,1.1-1.8,1.9
			C39.4,37.7,39.1,38,38.8,38z"/>
	</g>
	<g>
		<path fill="#8C8C8C" d="M20,38c-0.3,0-0.6-0.2-0.6-0.6c-0.1-0.8-1-1.3-1.8-1.9c-0.8-0.5-1.4-0.9-1.6-1.6c-0.1-0.6,0.1-1.2,0.7-1.7
			c0.7-0.6,1.7-0.8,2.5-0.5c1,0.4,1.8,1,1.9,1c0.3,0.2,0.4,0.6,0.2,0.9c-0.2,0.3-0.6,0.4-0.9,0.2c0,0-0.7-0.5-1.6-0.9
			c-0.3-0.1-0.8,0-1.1,0.3c-0.1,0.1-0.3,0.3-0.2,0.4c0.1,0.2,0.6,0.5,1,0.8c1,0.7,2.2,1.5,2.4,2.8C20.7,37.6,20.5,37.9,20,38
			C20.1,38,20.1,38,20,38z"/>
	</g>
	<g>
		<path fill="#8C8C8C" d="M26.5,58.6c-0.5,0-1-0.1-1.5-0.2c-1.3-0.3-2.3-0.8-3-1.5c-0.3-0.3-0.3-0.7,0-0.9c0.3-0.3,0.7-0.3,0.9,0
			c0.5,0.5,1.3,0.9,2.4,1.1c1.8,0.4,4.2,0.2,4.9-3.1c0.5-2.2-0.2-5.1-1.2-6.6c-0.4-0.6-0.8-1-1.1-1.1c-0.9-0.2-3.4,1.5-4.9,4.2
			c-0.2,0.3-0.6,0.4-0.9,0.3c-0.3-0.2-0.4-0.6-0.3-0.9c1.5-2.6,4.4-5.2,6.3-4.8c0.7,0.1,1.4,0.7,2,1.7c1.2,1.8,2,5,1.4,7.6
			C30.8,57.1,29,58.6,26.5,58.6z"/>
	</g>
	<g>
		<path fill="#8C8C8C" d="M16.2,58.6c-1.4,0-3.4-0.6-4.7-3.4c-1.1-2.5-0.8-5.8,0-7.8c0.4-1,1-1.7,1.6-1.9c0.2-0.1,0.5-0.1,0.8-0.1
			c2.2,0,6.2,2.8,7.6,5.9c0.7,1.6,0.8,3,0.3,4.2c-0.5,1.2-1.6,2.2-3.1,2.8C17.8,58.5,17,58.6,16.2,58.6z M13.9,46.7
			c-0.1,0-0.2,0-0.3,0c-0.3,0.1-0.6,0.6-0.9,1.2c-0.7,1.7-0.9,4.6,0,6.7c0.8,1.8,2,2.7,3.5,2.7c0.6,0,1.3-0.1,2-0.4
			c0.8-0.3,1.9-1,2.4-2c0.4-0.9,0.3-1.9-0.3-3.1C19.1,49,15.5,46.7,13.9,46.7z"/>
	</g>
	<path fill="#8C8C8C" d="M35.7,31.4v-4.5c0-1.8-3.2-2.7-6.3-2.7c-3.1,0-6.3,0.9-6.3,2.7v4.5c-2.4,0.8-3.7,1.9-3.7,3.2v11.1h1.3V34.6
		c0-0.6,1-1.5,3.2-2.1c0.3-0.1,0.5-0.3,0.5-0.6v-5c0-0.4,1.7-1.4,5-1.4c3.3,0,5,1,5,1.4v5c0,0.3,0.2,0.6,0.5,0.6
		c2.2,0.6,3.2,1.5,3.2,2.1v18.1c0,1-2,2.3-6.1,2.7v1.3c4.1-0.4,7.4-1.7,7.4-4V34.6C39.4,33.3,38.1,32.2,35.7,31.4z"/>
	<circle fill="#8C8C8C" cx="20.1" cy="45.6" r="0.7"/>
	<circle fill="#8C8C8C" cx="32" cy="56" r="0.7"/>
</g>
</svg>
