<?xml version="1.0" encoding="utf-8"?>
<!-- Generator: Adobe Illustrator 18.1.0, SVG Export Plug-In . SVG Version: 6.00 Build 0)  -->
<svg version="1.1" xmlns="http://www.w3.org/2000/svg" xmlns:xlink="http://www.w3.org/1999/xlink" x="0px" y="0px"
	 viewBox="0 0 54.4 62.2" enable-background="new 0 0 54.4 62.2" xml:space="preserve">
<g id="Layer_1">
</g>
<g id="Layer_2">
	<g>
		<path fill="#8C8C8C" d="M23.9,43.7c0,0.2-0.1,0.3-0.2,0.4l-0.1,0.1c-0.6,0.7-1.3,1.5-2.7,1.5s-2.1-0.8-2.7-1.5
			c-0.6-0.7-0.9-1.1-1.7-1.1c-0.8,0-1.1,0.4-1.7,1.1l-0.2,0.2c-0.2,0.3-0.7,0.3-0.9,0.1c-0.3-0.2-0.3-0.7-0.1-0.9l0.1-0.2
			c0.6-0.7,1.3-1.5,2.7-1.5c1.4,0,2.1,0.8,2.7,1.5c0.6,0.7,0.9,1.1,1.7,1.1c0.8,0,1.1-0.4,1.7-1.1l0.1-0.1c0.2-0.3,0.6-0.3,0.9-0.1
			C23.9,43.3,23.9,43.5,23.9,43.7z"/>
	</g>
	<path fill="none" stroke="#8C8C8C" stroke-width="1.5" stroke-miterlimit="10" d="M18.8,11.9H17c0,0,0.3,12.8-1.9,13.4
		c-3.9,2.7-3.4,9.2-3.4,9.2"/>
	<line fill="none" stroke="#8C8C8C" stroke-width="1.5" stroke-miterlimit="10" x1="11.8" y1="32.7" x2="11.8" y2="55.4"/>
	<path fill="none" stroke="#8C8C8C" stroke-width="1.5" stroke-miterlimit="10" d="M18.7,11.9h1.8c0,0-0.3,12.9,1.9,13.4
		c4.1,2.4,3.4,9.1,3.4,9.1"/>
	<line fill="none" stroke="#8C8C8C" stroke-width="1.5" stroke-miterlimit="10" x1="25.8" y1="32.7" x2="25.8" y2="55.4"/>
	<g>
		<path fill="#8C8C8C" d="M36.4,36.9c-1.3,0-7.7-0.1-7.7-2.3c0-2.2,6.4-2.3,7.7-2.3c0.5,0,1,0,1.5,0c0.4,0,0.6,0.3,0.6,0.7
			c0,0.4-0.3,0.6-0.7,0.6c-0.5,0-1,0-1.5,0c-3.6,0-5.7,0.6-6.3,1c0.6,0.4,2.7,1,6.3,1c3.6,0,5.7-0.6,6.3-1c-0.2-0.1-0.7-0.4-1.6-0.5
			c-0.4-0.1-0.6-0.4-0.5-0.8c0.1-0.4,0.4-0.6,0.8-0.5c1.9,0.4,2.8,1,2.8,1.8C44.1,36.8,37.7,36.9,36.4,36.9z"/>
	</g>
	<g>
		<path fill="#8C8C8C" d="M36.4,45.7c-0.8,0-7.6-0.1-7.6-2.3c0-0.4,0.3-0.7,0.7-0.7c0.3,0,0.6,0.2,0.6,0.6c0.3,0.4,2.5,1.1,6.3,1.1
			c3.8,0,6-0.7,6.3-1.1c0-0.3,0.3-0.6,0.6-0.6c0.4,0,0.7,0.3,0.7,0.7C44,45.6,37.2,45.7,36.4,45.7z"/>
	</g>
	<g>
		<path fill="#8C8C8C" d="M18.8,37.2c-0.8,0-7.6-0.1-7.6-2.3c0-0.4,0.3-0.7,0.7-0.7c0.3,0,0.6,0.2,0.6,0.6c0.3,0.4,2.5,1.1,6.3,1.1
			c3.8,0,6-0.7,6.3-1.1c0-0.3,0.3-0.6,0.6-0.6c0.4,0,0.7,0.3,0.7,0.7C26.4,37.1,19.6,37.2,18.8,37.2z"/>
	</g>
	<g>
		<path fill="#8C8C8C" d="M18.8,50.7c-0.8,0-7.6-0.1-7.6-2.3c0-0.4,0.3-0.7,0.7-0.7c0.3,0,0.6,0.2,0.6,0.6c0.3,0.4,2.5,1.1,6.3,1.1
			c3.8,0,6-0.7,6.3-1.1c0-0.3,0.3-0.6,0.6-0.6c0.4,0,0.7,0.3,0.7,0.7C26.4,50.6,19.6,50.7,18.8,50.7z"/>
	</g>
	<g>
		<path fill="#8C8C8C" d="M18.8,58c-0.8,0-7.6-0.1-7.6-2.3c0-0.4,0.3-0.7,0.7-0.7c0.3,0,0.6,0.2,0.6,0.6c0.3,0.4,2.5,1.1,6.3,1.1
			c3.8,0,6-0.7,6.3-1.1c0-0.3,0.3-0.6,0.6-0.6c0.4,0,0.7,0.3,0.7,0.7C26.4,58,19.6,58,18.8,58z"/>
	</g>
	<g>
		<path fill="#8C8C8C" d="M36.3,58c-1.3,0-7.7-0.1-7.7-2.3c0-2.2,6.4-2.3,7.7-2.3s7.7,0.1,7.7,2.3C44,57.9,37.6,58,36.3,58z
			 M30,55.7c0.6,0.4,2.7,1,6.3,1c3.6,0,5.7-0.6,6.3-1c-0.6-0.4-2.7-1-6.3-1C32.8,54.7,30.6,55.3,30,55.7z"/>
	</g>
	<g>
		<path fill="#8C8C8C" d="M29.3,56.4c-0.4,0-0.7-0.3-0.7-0.7V34.6c0-0.4,0.3-0.7,0.7-0.7c0.4,0,0.7,0.3,0.7,0.7v21.1
			C30,56.1,29.7,56.4,29.3,56.4z"/>
	</g>
	<g>
		<path fill="#8C8C8C" d="M43.4,56c-0.4,0-0.7-0.3-0.7-0.7V34.6c0-0.4,0.3-0.7,0.7-0.7s0.7,0.3,0.7,0.7v20.7
			C44.1,55.8,43.8,56,43.4,56z"/>
	</g>
	<g>
		<path fill="#8C8C8C" d="M35.2,52.5c0,0-0.1,0-0.1,0c-0.4-0.1-0.6-0.4-0.5-0.8l1.2-5.3c0.1-0.4,0.4-0.6,0.8-0.5
			c0.4,0.1,0.6,0.4,0.5,0.8L35.9,52C35.8,52.3,35.5,52.5,35.2,52.5z"/>
	</g>
	<g>
		<path fill="#8C8C8C" d="M37.2,43.8c0,0-0.1,0-0.1,0c-0.4-0.1-0.6-0.4-0.5-0.8l1.1-5c0.1-0.4,0.4-0.6,0.8-0.5
			c0.4,0.1,0.6,0.4,0.5,0.8l-1.1,5C37.8,43.6,37.5,43.8,37.2,43.8z"/>
	</g>
	<g>
		<path fill="#8C8C8C" d="M39.3,34.8c0,0-0.1,0-0.1,0c-0.4-0.1-0.6-0.4-0.5-0.8l2.5-10.9c0.1-0.4,0.4-0.6,0.8-0.5
			c0.4,0.1,0.6,0.4,0.5,0.8l-2.5,10.9C39.9,34.6,39.6,34.8,39.3,34.8z"/>
	</g>
</g>
</svg>
