<?xml version="1.0" encoding="utf-8"?>
<!-- Generator: Adobe Illustrator 18.1.0, SVG Export Plug-In . SVG Version: 6.00 Build 0)  -->
<svg version="1.1" xmlns="http://www.w3.org/2000/svg" xmlns:xlink="http://www.w3.org/1999/xlink" x="0px" y="0px"
	 viewBox="0 0 745.4 196.6" enable-background="new 0 0 745.4 196.6" xml:space="preserve">
<g id="Layer_2">
</g>
<g id="Layer_1">
	<path fill="#FFFFFF" d="M83.2,46.6c0,7.1,2.3,10.6,17.9,10.6c1.4,0,3.2,0.7,3.2,2.5c0,4.6-2.5,7.8-5.3,7.8
		c-15.6,0-20.5,4.6-22.3,14c-3,15.4-11.1,55.7-14.8,69c-4.4,17-29.7,28.1-37,28.1c-3.2,0-4.4-0.9-4.4-3.2c0-1.6,1.8-3.7,3.2-5.5
		c3-4.1,6-9.4,8.3-18.2c5.1-18.4,17.8-95.9,19-100.5C58.6,19,78.6,13,93.8,13c14.9,0,22.8,6.9,22.8,15.2c0,7.6-5.1,12.2-11.7,12.2
		c-12,0-7.1-14-12.4-14C86.6,26.3,83.2,40.3,83.2,46.6z"/>
	<path fill="#FFFFFF" d="M248.8,56.9c-14,0-20.2,15-20.2,15s1.4-6.2,1.4-9.9c0-3.9-2.8-6-7.8-6c-13.3,0-25.8,3.5-25.8,8.5
		c0,3,1.6,3.5,1.6,7.4c0,7.2-3.3,20.5-5.9,32.2c-0.3,1.2-1.6,2.8-2.2,3.3c-2,1.8-3.8,2.9-6.8,2.9c-4.1,0-7.8-3.5-7.8-9.4
		c0-17.9,8-35.9,8-41.4c0-2.5-1.4-3.5-3.5-3.5c-5.3,0-15.2,4.4-19.1,4.4c-3.7,0-7.1-4.4-19.3-4.4c-32.9,0-46.7,23.2-46.7,46
		c0,17.7,11,26.9,24.6,26.9c16.8,0,29-12.2,29-12.2s3.9,12.2,17.7,12.2c9.6,0,17.1-3.9,22.6-8.4c-0.2,1.3-0.3,2.4-0.3,3.3
		c0,3.9,1.8,5.1,4.8,5.1c3.4,0,12.4-1.2,19.3-1.2c3.5,0,5.1-0.9,5.1-4.8c0-9,5.3-28.1,9.4-35.9c3.5-6.4,6.4-9.4,7.8-9.9
		c0,4.1,3.2,8.7,9.7,8.7c9.4,0,14.9-9.7,14.9-18.2C259.3,60.8,255.2,56.9,248.8,56.9z M144.4,102.9c-3,6.9-7.6,10.8-12,10.8
		c-5.1,0-7.8-4.8-7.8-10.8c0-12.6,5.8-36.8,18.9-36.8c4.8,0,6.9,2.5,6.9,6.7C150.4,81.7,147.1,96.9,144.4,102.9z"/>
	<path fill="#FFFFFF" d="M562.5,56.9c-14,0-20.2,15-20.2,15s1.4-6.2,1.4-9.9c0-3.9-2.8-6-7.8-6c-13.3,0-25.8,3.5-25.8,8.5
		c0,3,1.6,3.5,1.6,7.4c0,7.2-3.2,20.5-5.9,32.1c-0.3,1.2-1.9,2.8-2.5,3.4c-2,1.8-3.8,2.9-6.7,2.9c-4.1,0-7.5-3.1-7.8-9.4
		c-0.2-4.4-5.1-2.2,15.2-70.1c2.6-8.7,6.6-13.9,9.7-18c1.4-1.8,3.3-3.8,3.4-5.4c0.1-2.3-1.1-3.2-4.3-3.3
		c-7.4-0.2-32.9,10.2-37.7,27.2c-3.5,11.7-2.9,13.5-6.3,28.7c-2.1-1.4-8.7-3.9-16.8-3.9c-24.3,0-41.7,18-43.5,41.9
		c-0.4,5.6-3.3,8.9-4,9.5c-2,1.8-3.8,2.9-6.7,2.9c-4.1,0-7.4-2.3-7.4-8.3c0-9.2,6.4-20.5,6.4-30.4c0-10.1-6.2-15.6-19.5-15.6
		c-16.8,0-29,12.6-30.8,14.5C345.7,67,341.8,56,327.5,56c-17.5,0-29.4,13.8-31.7,16.3c0,0,1.8-6.7,1.8-10.3c0-3.9-2.8-6-7.8-6
		c-13.3,0-25.8,3.5-25.8,8.5c0,3,1.6,3.5,1.6,7.4c0,12.4-9.7,43.5-9.7,52c0,3.9,1.8,5.1,4.8,5.1c3.4,0,12.4-1.2,19.3-1.2
		c3.5,0,5.1-0.9,5.1-4.8c0-9,5.5-28.7,9.9-36.3c5.5-9.7,12-14,16.1-14c3.5,0,5.1,2.8,5.1,6.9c0,9.7-8.5,30.8-8.5,44.4
		c0,3.9,1.8,5.1,4.6,5.1c3.9,0,12.9-1.2,20-1.2c3.5,0,4.8-0.9,4.8-4.8c0-11,5.3-28.3,10.1-37.5c4.6-9,9.7-12.9,14-12.9
		c3.5,0,5.5,2.1,5.5,6.4c0,9-7.4,18.2-7.4,32.2c0,9.7,8,17.7,21.2,17.7c14.5,0,24.4-9,29.2-15.2c3.2,9.8,11.2,15.2,23.2,15.2
		c16.6,0,28.5-11.5,28.5-11.5s3.9,11.5,17.9,11.5c9.8,0,17.5-4.1,22.9-8.7c-0.2,1.4-0.3,2.7-0.3,3.6c0,3.9,1.8,5.1,4.8,5.1
		c3.4,0,12.4-1.2,19.3-1.2c3.5,0,5.1-0.9,5.1-4.8c0-9,5.3-28.1,9.4-35.9c3.5-6.4,6.4-9.4,7.8-9.9c0,4.1,3.2,8.7,9.7,8.7
		c9.4,0,14.9-9.7,14.9-18.2C573.1,60.8,568.9,56.9,562.5,56.9z M457.6,102.9c-3,7.1-7.6,11-12,11c-5.1,0-7.4-3.7-7.4-9.4
		c0-12.6,5.3-38.4,18.2-38.4c4.8,0,7.4,2.5,7.4,6.7C463.8,82,460.1,97.1,457.6,102.9z"/>
	<path fill="#FFFFFF" d="M712.7,56c-14,0-25.1,9.2-27.1,12.4c0,0,0.7-2.8,0.7-6.4c0-3.9-2.8-6-7.8-6c-13.3,0-25.8,3.5-25.8,8.5
		c0,3,1.6,3.5,1.6,7.4c-0.2,3.8,0.7,8.8-1.3,20.1l0,0c-4,27.6-9.4,49.4-14.9,67.7c-2.5,8.7-6.6,13.9-9.7,18
		c-1.4,1.8-3.3,3.8-3.4,5.4c-0.1,2.3,1.1,3.2,4.3,3.3c7.4,0.2,32.9-10.2,37.7-27.2c4-13.2,4.6-20.9,8-36.3l-0.3-0.4l0.3,0.1
		c1.4,1.4,7.8,6.2,17.7,6.2c28.3,0,43.7-27.6,43.7-47.6C736.4,65.6,727.2,56,712.7,56z M687.4,117.2c-4.8,0-7.4-2.5-7.4-6.7
		c0-9.7,3.7-23,6.4-29c3-6.9,7.8-11.3,12.2-11.3c5.1,0,7.1,2.8,7.1,8.7C705.8,91.4,700.3,117.2,687.4,117.2z"/>
	<g>
		<g>
			<path fill="#FFFFFF" d="M617.7,56c-31.5,0-49.2,22.3-49.2,44.6c0,18.4,13.1,30.1,33.3,30.1c28.3,0,44.6-22.1,44.6-47.8
				C646.5,67.1,634.7,56,617.7,56z M602.2,117.2c-4.8,0-7.4-2.5-7.4-6.7c0-9.7,3.7-23,6.4-29c3-6.9,7.8-11.3,12.2-11.3
				c5.1,0,7.1,2.8,7.1,8.7C620.6,91.4,615.1,117.2,602.2,117.2z"/>
		</g>
	</g>
</g>
<g id="Layer_3">
</g>
</svg>
