<?xml version="1.0" encoding="utf-8"?>
<!-- Generator: Adobe Illustrator 18.1.1, SVG Export Plug-In . SVG Version: 6.00 Build 0)  -->
<svg version="1.1" xmlns="http://www.w3.org/2000/svg" xmlns:xlink="http://www.w3.org/1999/xlink" x="0px" y="0px"
	 viewBox="0 0 54.4 62.2" enable-background="new 0 0 54.4 62.2" xml:space="preserve">
<g id="Layer_1">
</g>
<g id="Layer_2">
	<g>
		<path fill="#8C8C8C" d="M12.1,35.6c-1.6-6.9,2.8-13.6,3-13.9c0.2-0.3,0.6-0.4,0.9-0.2c0.3,0.2,6.7,4.4,8.8,11.1
			c1.6,4.9,1.3,9-0.7,12.2l3.5,5c0.2,0.2,0.2,0.6,0,0.8c-0.2,0.2-0.5,0.3-0.8,0.2c-0.2-0.1-4.2-1.8-7.7,1.8
			c-0.1,0.1-0.2,0.2-0.4,0.2c-0.4,0.1-0.7-0.1-0.8-0.5c0-0.1,0-0.2,0-0.3l1-5.5C16,45.2,13.3,40.9,12.1,35.6z M15.8,23
			c-1,1.7-3.7,7.1-2.4,12.3c1.2,5.1,3.8,9.3,6.4,10.1c0.3,0.1,0.5,0.4,0.4,0.7l-0.8,4.2c2.2-1.5,4.5-1.6,6-1.4l-2.7-3.9
			c-0.2-0.2-0.2-0.5,0-0.8c2-2.8,2.3-6.7,0.8-11.4C21.9,27.9,17.4,24.2,15.8,23z"/>
	</g>
	<g>
		<circle fill="#8C8C8C" cx="18.6" cy="29.7" r="1"/>
	</g>
	<g>
		<path fill="#8C8C8C" d="M11.9,32c-0.1-0.3,0.1-0.7,0.4-0.8c0.3-0.1,0.7,0.1,0.8,0.4c0.4,1.3,1,2.1,1.9,2.5c1.4,0.7,3.2,0,4-0.3
			c0.4-0.1,0.7-0.3,1,0c0.3,0.2,0.4,0.6,0.2,0.9c-0.1,0.2-0.3,0.3-0.5,0.3c0,0-0.1,0-0.2,0.1c-0.8,0.3-3.1,1.2-5,0.2
			C13.2,34.8,12.4,33.7,11.9,32C11.9,32.1,11.9,32,11.9,32z M19.3,35C19.2,35,19.2,35,19.3,35C19.2,35,19.2,35,19.3,35z"/>
	</g>
	<g>
		<path fill="#8C8C8C" d="M41.7,42.5c-1.6,5.2-4.6,9.2-7.5,10.3l0.6,5.6c0,0.3-0.1,0.6-0.4,0.7c-0.3,0.1-0.6,0-0.8-0.2
			c-3.2-4-7.6-2.5-7.6-2.5c-0.3,0.1-0.6,0-0.8-0.2c-0.2-0.2-0.2-0.6,0-0.8l3.8-4.7c-1.1-2.2-1.8-6.1-0.2-10.9
			c0.1-0.4,0.3-0.8,0.4-1.3c2.5-6.5,9.4-10.2,9.6-10.4c0.3-0.2,0.7-0.1,0.9,0.3C40,28.7,43.9,35.8,41.7,42.5z M32.9,52.2
			c0.1-0.2,0.2-0.4,0.5-0.4c2.6-0.7,5.6-4.6,7.1-9.6c1.6-5.1-0.6-10.7-1.5-12.5c-1.7,1-6.5,4.3-8.5,9.4c-0.2,0.4-0.3,0.8-0.4,1.2
			c-1.5,4.7-0.8,8.4,0.3,10.3c0.1,0.2,0.1,0.5-0.1,0.8l-3,3.7c1.5-0.1,3.8,0.1,5.9,1.8l-0.4-4.3C32.8,52.4,32.8,52.3,32.9,52.2z"/>
	</g>
	<g>
		<circle fill="#8C8C8C" cx="35.7" cy="36.1" r="1"/>
	</g>
	<g>
		<path fill="#8C8C8C" d="M42.3,39.1C42.2,39.1,42.2,39.1,42.3,39.1c-0.6,1.6-1.5,2.6-2.7,3c-2,0.8-4.2-0.2-5.1-0.6
			c-0.1,0-0.1-0.1-0.2-0.1c-0.2,0-0.4-0.2-0.5-0.3c-0.2-0.3-0.1-0.7,0.3-0.9c0.3-0.2,0.6-0.1,0.9,0.1c0.8,0.4,2.5,1.2,4,0.6
			c0.8-0.3,1.5-1.1,2-2.2c0.1-0.3,0.5-0.5,0.9-0.4C42.2,38.4,42.4,38.8,42.3,39.1z"/>
	</g>
</g>
</svg>
