<?xml version="1.0" encoding="utf-8"?>
<!-- Generator: Adobe Illustrator 18.1.0, SVG Export Plug-In . SVG Version: 6.00 Build 0)  -->
<svg version="1.1" xmlns="http://www.w3.org/2000/svg" xmlns:xlink="http://www.w3.org/1999/xlink" x="0px" y="0px"
	 viewBox="0 0 54.4 62.2" enable-background="new 0 0 54.4 62.2" xml:space="preserve">
<g id="Layer_1">
</g>
<g id="Layer_2">
	<g>
		<path fill="#8C8C8C" d="M9,41C9,41,9,41,9,41c-0.4,0-0.7-0.3-0.7-0.7l0.3-6.1c0-0.4,0.3-0.6,0.7-0.6c0.4,0,0.6,0.3,0.6,0.7
			l-0.3,6.1C9.6,40.7,9.4,41,9,41z"/>
	</g>
	<g>
		<path fill="#8C8C8C" d="M11.6,40.9C11.6,40.9,11.6,40.9,11.6,40.9c-0.4,0-0.7-0.3-0.7-0.7l0-6c0-0.4,0.3-0.7,0.7-0.7
			c0.4,0,0.7,0.3,0.7,0.7l0,6C12.3,40.6,12,40.9,11.6,40.9z"/>
	</g>
	<g>
		<path fill="#8C8C8C" d="M14.3,40.9c-0.3,0-0.6-0.3-0.7-0.6l-0.3-6c0-0.4,0.3-0.7,0.6-0.7c0.4,0,0.7,0.3,0.7,0.6l0.3,6
			C15,40.6,14.7,40.9,14.3,40.9C14.3,40.9,14.3,40.9,14.3,40.9z"/>
	</g>
	<g>
		<path fill="#8C8C8C" d="M11.6,44.4c-1.6,0-3.3-1.2-3.3-4c0-0.4,0.3-0.7,0.7-0.7h5.3c0.4,0,0.7,0.3,0.7,0.7
			C14.9,43.1,13.3,44.4,11.6,44.4z M9.7,41c0.2,1.3,0.9,2.1,1.9,2.1c1,0,1.8-0.8,1.9-2.1H9.7z"/>
	</g>
	<g>
		<path fill="#8C8C8C" d="M11.8,58.4c-1.3,0-2.2-1.6-2.2-3.7c0-1.7,1.5-10.7,1.6-11.1c0.1-0.3,0.3-0.5,0.6-0.5
			c0.3,0,0.6,0.2,0.6,0.5c0.1,0.4,1.6,9.4,1.6,11.1C14.1,56.8,13.1,58.4,11.8,58.4z M11.8,47.8c-0.5,2.9-0.9,6.1-0.9,6.9
			c0,1.5,0.6,2.3,0.9,2.3c0.3,0,0.9-0.9,0.9-2.3C12.8,53.9,12.3,50.7,11.8,47.8z"/>
	</g>
	<g>
		<path fill="#8C8C8C" d="M43.6,58.4L43.6,58.4C43.6,58.4,43.6,58.4,43.6,58.4c-1.2,0-2-1.6-2-3.7c0-0.7,0.3-2.8,0.8-6.2
			c-2-0.8-2-4.2-1.8-5.6c0.1-0.7,0.4-2.9,0.8-5c0.8-3.9,1.3-4.4,1.8-4.5c0.3-0.1,0.6,0,0.9,0.2c1.1,1.2,1.3,9.9,1.2,11.3l0,0.4
			c-0.1,0.8-0.1,1.4-0.2,1.9c0.5,4.2,0.7,6.7,0.7,7.5C45.6,56.6,44.9,58.4,43.6,58.4z M43.7,48.5c-0.5,3.4-0.8,5.6-0.8,6.3
			c0,1.5,0.5,2.3,0.7,2.4c0.2,0,0.7-0.8,0.8-2.3C44.4,54.1,44.1,51.9,43.7,48.5z M43.3,35.5c-0.6,1.9-1.3,6.1-1.4,7.5
			c-0.2,1.9,0.1,4,1.1,4.3c0.1,0,0.2,0.1,0.3,0.1c0.2,0,0.3,0.1,0.4,0.2c0-0.1,0-0.2,0-0.3c0-0.1,0-0.2,0-0.2
			c0.1-0.4,0.1-1.1,0.2-1.8l0-0.4C44,42.8,43.7,37.7,43.3,35.5z"/>
	</g>
	<g>
		<g>
			<path fill="#8C8C8C" d="M27.3,57.1c-6.2,0-11.3-5-11.3-11.3c0-6.2,5-11.3,11.3-11.3c6.2,0,11.3,5,11.3,11.3
				C38.6,52.1,33.5,57.1,27.3,57.1z M27.3,35.9c-5.5,0-9.9,4.5-9.9,9.9c0,5.5,4.5,9.9,9.9,9.9c5.5,0,9.9-4.5,9.9-9.9
				C37.3,40.4,32.8,35.9,27.3,35.9z"/>
		</g>
		<g>
			<path fill="#8C8C8C" d="M27.3,53.7c-4.3,0-7.8-3.5-7.8-7.8c0-4.3,3.5-7.8,7.8-7.8c4.3,0,7.8,3.5,7.8,7.8
				C35.1,50.2,31.6,53.7,27.3,53.7z M27.3,39.4c-3.6,0-6.5,2.9-6.5,6.5c0,3.6,2.9,6.5,6.5,6.5c3.6,0,6.5-2.9,6.5-6.5
				C33.8,42.3,30.9,39.4,27.3,39.4z"/>
		</g>
	</g>
</g>
</svg>
