<?xml version="1.0" encoding="utf-8"?>
<!-- Generator: Adobe Illustrator 18.1.1, SVG Export Plug-In . SVG Version: 6.00 Build 0)  -->
<svg version="1.1" xmlns="http://www.w3.org/2000/svg" xmlns:xlink="http://www.w3.org/1999/xlink" x="0px" y="0px"
	 viewBox="0 0 54.4 62.2" enable-background="new 0 0 54.4 62.2" xml:space="preserve">
<g id="Layer_1">
</g>
<g id="Layer_2">
	<g>
		<g>
			<path fill="#8C8C8C" d="M30.7,48.6c-1.6-0.4-2.9-2.2-3.4-4.7c-0.3-1.3-0.3-2.6,0-3.6c0.6-2.4,3-3.9,5.5-3.4
				c0.8,0.2,1.6,0.5,2.2,1.1c0.8-0.3,1.6-0.3,2.5-0.1c2.5,0.5,4.2,2.8,3.8,5.3c-0.1,1.1-0.6,2.3-1.4,3.4c-1.2,1.7-2.7,3.4-4.9,3
				c-1.2-0.2-1.7-0.6-2.1-0.8c-0.4,0.2-1,0.4-2,0.2l0,0C31,48.7,30.9,48.7,30.7,48.6z M33.4,47.1c0.1,0.1,0.3,0.2,0.4,0.2
				c0.3,0.2,0.6,0.4,1.6,0.6c0.8,0.2,1.8,0,3.5-2.4c0.6-0.9,1-1.9,1.1-2.8c0,0,0,0,0,0c0.3-1.7-0.9-3.4-2.7-3.7
				c-0.7-0.1-1.4-0.1-2.1,0.2c-0.3,0.1-0.6,0.1-0.8-0.2c-0.5-0.5-1.1-0.9-1.8-1c-1.8-0.4-3.5,0.7-3.9,2.4c0,0,0,0,0,0
				c-0.2,0.8-0.2,1.9,0,3c0.5,2.4,1.6,3.5,2.5,3.7c0.1,0,0.2,0,0.2,0.1l0,0c0.6,0.1,1,0,1.3-0.2c0.1,0,0.1-0.1,0.2-0.1
				c0.1-0.1,0.3-0.1,0.4,0C33.3,47.1,33.4,47.1,33.4,47.1z"/>
		</g>
		<g>
			<path fill="#8C8C8C" d="M37.4,36.8c-0.1,0-0.2-0.1-0.3-0.1c-0.2-0.2-0.3-0.4-0.3-0.7c0.3-2,1.4-2.9,2.3-3.2
				c1.7-0.7,3.6-0.2,4-0.1c0.2,0,0.3,0.1,0.4,0.3c0.1,0.2,0.1,0.4,0.1,0.5c0,0.1-0.6,2.5-2.6,3.4C40,37.3,38.8,37.3,37.4,36.8z
				 M39.7,34c-0.7,0.3-1.1,0.8-1.3,1.6c0.8,0.2,1.5,0.2,2.2-0.1c0.8-0.4,1.3-1.2,1.6-1.8C41.4,33.7,40.5,33.7,39.7,34z"/>
		</g>
		
			<path fill="none" stroke="#8C8C8C" stroke-width="1.5" stroke-linecap="round" stroke-linejoin="round" stroke-miterlimit="10" d="
			M23.7,53.7c0,0-0.9-3.3,1.1-6.9c2-4.8-1.9-8.4-6.7-6.8s-0.8,0.3-2.9,1.4c-4.1,1.6-4.9,10.2,3.2,10C22.6,52.2,23.7,53.7,23.7,53.7z
			"/>
		
			<path fill="none" stroke="#8C8C8C" stroke-width="1.0078" stroke-linecap="round" stroke-linejoin="round" stroke-miterlimit="10" d="
			M12.4,45.8c0,0,4,1.5,7.7-1.3"/>
		
			<path fill="none" stroke="#8C8C8C" stroke-width="1.0078" stroke-linecap="round" stroke-linejoin="round" stroke-miterlimit="10" d="
			M13.4,43.1c0,0,2.7,1,5.2-0.8"/>
		
			<path fill="none" stroke="#8C8C8C" stroke-width="0.9374" stroke-linecap="round" stroke-linejoin="round" stroke-miterlimit="10" d="
			M35.1,38.2c0,0,0.8-2.5-1.2-4.4"/>
		
			<path fill="none" stroke="#8C8C8C" stroke-width="0.8511" stroke-linecap="round" stroke-linejoin="round" stroke-miterlimit="10" d="
			M23.5,57.7c0,0,1.5-2-0.3-4"/>
		
			<path fill="none" stroke="#8C8C8C" stroke-width="0.8511" stroke-linecap="round" stroke-linejoin="round" stroke-miterlimit="10" d="
			M24.1,55.5c0,0,0.1-1.9-0.6-3.9"/>
		
			<path fill="none" stroke="#8C8C8C" stroke-width="1.0078" stroke-linecap="round" stroke-linejoin="round" stroke-miterlimit="10" d="
			M13,48.5c0,0,2.4,1.3,6.8-0.8"/>
		
			<path fill="none" stroke="#8C8C8C" stroke-width="1.5" stroke-linecap="round" stroke-linejoin="round" stroke-miterlimit="10" d="
			M15.7,40.5c0,0-3.6-7,6.3-9.1c0,0,5.7,0,6.4-0.8c1-1.1,0.4-2.9-2.4-3c0,0,1.6-2.1,0.3-3.3c-0.9-0.7-2.2-0.9-3.4,0.9
			c0,0,0.5-1.5-0.4-2.4c-0.9-0.9-3.2,0.4-3,1.8c0.5,5.3-0.8,11.5-0.8,11.5"/>
		<circle fill="none" stroke="#8C8C8C" stroke-width="1.5" stroke-miterlimit="10" cx="28" cy="52.2" r="1.4"/>
		<circle fill="none" stroke="#8C8C8C" stroke-width="1.5" stroke-miterlimit="10" cx="34" cy="53" r="1.4"/>
		<circle fill="none" stroke="#8C8C8C" stroke-width="1.5" stroke-miterlimit="10" cx="30.3" cy="56.9" r="1.4"/>
	</g>
</g>
</svg>
