<?xml version="1.0" encoding="utf-8"?>
<!-- Generator: Adobe Illustrator 18.1.0, SVG Export Plug-In . SVG Version: 6.00 Build 0)  -->
<svg version="1.1" xmlns="http://www.w3.org/2000/svg" xmlns:xlink="http://www.w3.org/1999/xlink" x="0px" y="0px"
	 viewBox="0 0 54.4 62.2" enable-background="new 0 0 54.4 62.2" xml:space="preserve">
<g id="Layer_1">
</g>
<g id="Layer_2">
	<path fill="none" stroke="#8C8C8C" stroke-width="1.5" stroke-miterlimit="10" d="M33,35.2c0.4,0,0.6-0.2,1-0.1
		c1.7,0.5,3.2,19.3,3.2,20c0,1.4-4.2,2.5-9.4,2.5c-5.2,0-9.4-1.1-9.4-2.5c0-0.7,1.1-19.5,2.9-20c0.1,0,0.3-0.2,0.5-0.1"/>
	<path fill="none" stroke="#8C8C8C" stroke-width="1.5" stroke-miterlimit="10" d="M36.7,49.2c0,1.4-3.7,2.5-8.9,2.5
		c-5.2,0-9-1.1-9-2.5"/>
	<path fill="none" stroke="#8C8C8C" stroke-width="1.5" stroke-miterlimit="10" d="M35.8,41.6c0,0.7-2.8,1.5-8,1.5
		c-5.2,0-8.3-0.8-8.3-1.5"/>
	<ellipse fill="none" stroke="#8C8C8C" stroke-width="1.5" stroke-miterlimit="10" cx="27.8" cy="33.8" rx="7.6" ry="2"/>
	<g>
		<path fill="#8C8C8C" d="M33,47.2c0,0.2-0.1,0.3-0.2,0.4l-0.1,0.1c-0.6,0.7-1.3,1.5-2.7,1.5s-2.1-0.8-2.7-1.5
			c-0.6-0.7-0.9-1.1-1.7-1.1c-0.8,0-1.1,0.4-1.7,1.1l-0.2,0.2c-0.2,0.3-0.7,0.3-0.9,0.1c-0.3-0.2-0.3-0.7-0.1-0.9l0.1-0.2
			c0.6-0.7,1.3-1.5,2.7-1.5c1.4,0,2.1,0.8,2.7,1.5c0.6,0.7,0.9,1.1,1.7,1.1c0.8,0,1.1-0.4,1.7-1.1l0.1-0.1c0.2-0.3,0.6-0.3,0.9-0.1
			C32.9,46.8,33,47,33,47.2z"/>
	</g>
</g>
</svg>
