<?xml version="1.0" encoding="UTF-8" standalone="no"?>
<svg width="130px" height="34px" viewBox="0 0 130 34" version="1.1" xmlns="http://www.w3.org/2000/svg" xmlns:xlink="http://www.w3.org/1999/xlink" xmlns:sketch="http://www.bohemiancoding.com/sketch/ns">
    <!-- Generator: Sketch 3.4 (15588) - http://www.bohemiancoding.com/sketch -->
    <title>logo</title>
    <desc>Created with Sketch.</desc>
    <defs></defs>
    <g id="Page-1" stroke="none" stroke-width="1" fill="none" fill-rule="evenodd" sketch:type="MSPage">
        <g id="Desktop_XMAS_DelDay" sketch:type="MSArtboardGroup" transform="translate(-27.000000, -58.000000)" fill="#77BC1F">
            <g id="main-panel" sketch:type="MSLayerGroup" transform="translate(27.000000, 46.000000)">
                <g id="logo" transform="translate(0.000000, 12.000000)" sketch:type="MSShapeGroup">
                    <path d="M11.420205,7.84187408 C11.420205,9.13616398 11.8389458,9.76427526 14.6749634,9.76427526 C14.9224012,9.76427526 15.2650073,9.89751098 15.2650073,10.2210835 C15.2650073,11.0585652 14.8081991,11.6295754 14.2942899,11.6295754 C11.4582723,11.6295754 10.5636896,12.4670571 10.2591508,14.1610542 C9.72620791,16.9590044 8.26061493,24.2679356 7.57540264,26.6852123 C6.77598829,29.7877013 2.16983895,31.7862372 0.856515373,31.7862372 C0.266471449,31.7862372 0.0571010249,31.6339678 0.0571010249,31.1961933 C0.0571010249,30.9106881 0.380673499,30.5300146 0.647144949,30.1874085 C1.18008785,29.4450952 1.73206442,28.4743777 2.15080527,26.875549 C3.08345534,23.5256223 5.38653001,9.47877013 5.59590044,8.64128843 C6.96632504,2.79795022 10.601757,1.71303075 13.3616398,1.71303075 C16.0644217,1.71303075 17.4919473,2.96925329 17.4919473,4.47291362 C17.4919473,5.84333821 16.5592972,6.69985359 15.3601757,6.69985359 C13.1713031,6.69985359 14.0658858,4.16837482 13.114202,4.16837482 C12.0483163,4.16837482 11.420205,6.69985359 11.420205,7.84187408 L11.420205,7.84187408 Z" id="Shape"></path>
                    <path d="M41.4743777,9.70717423 C38.942899,9.70717423 37.8199122,12.4289898 37.8199122,12.4289898 C37.8199122,12.4289898 38.0673499,11.3060029 38.0673499,10.6398243 C38.0673499,9.93557833 37.5724744,9.55490483 36.658858,9.55490483 C34.2415813,9.55490483 31.9765739,10.1830161 31.9765739,11.0966325 C31.9765739,11.6295754 32.2620791,11.7247438 32.2620791,12.4480234 C32.2620791,13.761347 31.6720351,16.1786237 31.1961933,18.2913616 C31.1390922,18.5007321 30.9106881,18.7862372 30.7964861,18.8814056 C30.4348463,19.204978 30.1112738,19.4143485 29.5592972,19.4143485 C28.8169839,19.4143485 28.1508053,18.7862372 28.1508053,17.7013177 C28.1508053,14.4465593 29.5973646,11.1918009 29.5973646,10.1830161 C29.5973646,9.72620791 29.3499268,9.55490483 28.9692533,9.55490483 C27.9985359,9.55490483 26.2093704,10.3543192 25.5051245,10.3543192 C24.8389458,10.3543192 24.2108346,9.55490483 22.0029283,9.55490483 C16.0263543,9.55490483 13.5139092,13.761347 13.5139092,17.9106881 C13.5139092,21.1273792 15.5124451,22.8023426 17.9868228,22.8023426 C21.0322108,22.8023426 23.2401171,20.5754026 23.2401171,20.5754026 C23.2401171,20.5754026 23.9253294,22.7833089 26.4187408,22.7833089 C28.1698389,22.7833089 29.5212299,22.079063 30.510981,21.2606149 C30.4729136,21.489019 30.4538799,21.6983895 30.4538799,21.8506589 C30.4538799,22.5549048 30.7774524,22.7833089 31.329429,22.7833089 C31.9575403,22.7833089 33.5754026,22.5739385 34.8316252,22.5739385 C35.4597365,22.5739385 35.7642753,22.4216691 35.7642753,21.6983895 C35.7642753,20.0614934 36.7349927,16.5973646 37.477306,15.1888726 C38.1054173,14.0278184 38.6383602,13.4758419 38.885798,13.3997072 C38.885798,14.1420205 39.4758419,14.9795022 40.636896,14.9795022 C42.3499268,14.9795022 43.3396779,13.2284041 43.3396779,11.6676428 C43.3777452,10.4304539 42.6354319,9.70717423 41.4743777,9.70717423 L41.4743777,9.70717423 Z M22.5358712,18.0629575 C22.0029283,19.3191801 21.1654466,20.0234261 20.3469985,20.0234261 C19.4143485,20.0234261 18.9385066,19.147877 18.9385066,18.0629575 C18.9385066,15.7789165 20.0043924,11.3821376 22.3645681,11.3821376 C23.2401171,11.3821376 23.6207906,11.8389458 23.6207906,12.6002928 C23.601757,14.2181552 23.011713,16.9780381 22.5358712,18.0629575 L22.5358712,18.0629575 Z" id="Shape"></path>
                    <path d="M98.3850659,9.70717423 C95.8535871,9.70717423 94.7306003,12.4289898 94.7306003,12.4289898 C94.7306003,12.4289898 94.9780381,11.3060029 94.9780381,10.6398243 C94.9780381,9.93557833 94.4831625,9.55490483 93.5695461,9.55490483 C91.1522694,9.55490483 88.8872621,10.1830161 88.8872621,11.0966325 C88.8872621,11.6295754 89.1727672,11.7247438 89.1727672,12.4480234 C89.1727672,13.761347 88.5827233,16.1786237 88.1068814,18.272328 C88.0497804,18.4816984 87.7642753,18.7672035 87.6500732,18.9004392 C87.2884334,19.2240117 86.9648609,19.4333821 86.431918,19.4333821 C85.6896047,19.4333821 85.0805271,18.8623719 85.0234261,17.7203514 C84.9853587,16.920937 84.090776,17.3206442 87.7833089,5.00585652 C88.2591508,3.42606149 88.9824305,2.47437775 89.534407,1.7510981 C89.7818448,1.42752562 90.124451,1.0658858 90.1625183,0.780380673 C90.181552,0.361639824 89.9721816,0.19033675 89.3821376,0.19033675 C88.0307467,0.1522694 83.4055637,2.03660322 82.5490483,5.13909224 C81.920937,7.27086384 82.0161054,7.57540264 81.4070278,10.3352855 C81.0263543,10.0878477 79.8272328,9.63103953 78.3616398,9.63103953 C73.9458272,9.63103953 70.7862372,12.885798 70.4626647,17.2445095 C70.4055637,18.2532943 69.8726208,18.8623719 69.7393851,18.9765739 C69.3777452,19.3001464 69.0541728,19.5095168 68.5212299,19.5095168 C67.7789165,19.5095168 67.1698389,19.090776 67.1698389,18.0058565 C67.1698389,16.3499268 68.3308931,14.2752562 68.3308931,12.4860908 C68.3308931,10.658858 67.2079063,9.65007321 64.7906296,9.65007321 C61.7452416,9.65007321 59.5373353,11.9341142 59.1947291,12.2767204 C59.0424597,11.6295754 58.3382138,9.63103953 55.749634,9.63103953 C52.5710102,9.63103953 50.420205,12.1434846 50.0014641,12.5812592 C50.0014641,12.5812592 50.3250366,11.363104 50.3250366,10.715959 C50.3250366,10.011713 49.8301611,9.63103953 48.9165447,9.63103953 C46.4992679,9.63103953 44.2342606,10.2591508 44.2342606,11.1727672 C44.2342606,11.7057101 44.5197657,11.8008785 44.5197657,12.5241581 C44.5197657,14.7701318 42.7686676,20.4231332 42.7686676,21.9648609 C42.7686676,22.6691069 43.0922401,22.897511 43.6442167,22.897511 C44.272328,22.897511 45.8901903,22.6881406 47.1464129,22.6881406 C47.7745242,22.6881406 48.079063,22.5358712 48.079063,21.8125915 C48.079063,20.1756955 49.0878477,16.6163982 49.8682284,15.22694 C50.8770132,13.4758419 52.057101,12.6954612 52.7803807,12.6954612 C53.4084919,12.6954612 53.7130307,13.1903367 53.7130307,13.9516837 C53.7130307,15.7027818 52.1713031,19.5475842 52.1713031,22.0029283 C52.1713031,22.7071742 52.4948755,22.9355783 53.0087848,22.9355783 C53.7130307,22.9355783 55.3499268,22.7262079 56.6442167,22.7262079 C57.272328,22.7262079 57.5197657,22.5739385 57.5197657,21.8506589 C57.5197657,19.852123 58.4904832,16.7115666 59.3469985,15.0556369 C60.1844802,13.4187408 61.0980966,12.7144949 61.8784773,12.7144949 C62.5065886,12.7144949 62.8872621,13.0951684 62.8872621,13.875549 C62.8872621,15.5124451 61.5358712,17.1874085 61.5358712,19.7188873 C61.5358712,21.4699854 62.9824305,22.9355783 65.3806735,22.9355783 C68.0073206,22.9355783 69.7964861,21.2986823 70.6720351,20.1756955 C71.2620791,21.9648609 72.7086384,22.9355783 74.8784773,22.9355783 C77.885798,22.9355783 80.0556369,20.8418741 80.0556369,20.8418741 C80.0556369,20.8418741 80.7598829,22.9355783 83.3103953,22.9355783 C85.0995608,22.9355783 86.489019,22.193265 87.4787701,21.3557833 C87.4407028,21.6032211 87.4216691,21.8506589 87.4216691,22.0029283 C87.4216691,22.7071742 87.7452416,22.9355783 88.2972182,22.9355783 C88.9253294,22.9355783 90.5431918,22.7262079 91.7994143,22.7262079 C92.4275256,22.7262079 92.7320644,22.5739385 92.7320644,21.8506589 C92.7320644,20.2137628 93.7027818,16.749634 94.4450952,15.341142 C95.0732064,14.1800878 95.6061493,13.6281113 95.8535871,13.5519766 C95.8535871,14.2942899 96.443631,15.1317716 97.6046852,15.1317716 C99.317716,15.1317716 100.307467,13.3806735 100.307467,11.8199122 C100.326501,10.4304539 99.5461201,9.70717423 98.3850659,9.70717423 L98.3850659,9.70717423 Z M79.3513909,18.0629575 C78.818448,19.3572474 77.9809663,20.0614934 77.1625183,20.0614934 C76.2298682,20.0614934 75.8111274,19.3953148 75.8111274,18.3484627 C75.8111274,16.0644217 76.7818448,11.3821376 79.1229868,11.3821376 C79.9985359,11.3821376 80.4743777,11.8389458 80.4743777,12.6002928 C80.4743777,14.2752562 79.8272328,17.0161054 79.3513909,18.0629575 L79.3513909,18.0629575 Z" id="Shape"></path>
                    <path d="M125.660322,9.55490483 C123.128843,9.55490483 121.111274,11.2108346 120.749634,11.8008785 C120.749634,11.8008785 120.88287,11.3060029 120.88287,10.6398243 C120.88287,9.93557833 120.387994,9.55490483 119.474378,9.55490483 C117.057101,9.55490483 114.792094,10.1830161 114.792094,11.0966325 C114.792094,11.6295754 115.077599,11.7247438 115.077599,12.4480234 C115.039531,13.1332357 115.210835,14.0468521 114.849195,16.102489 L114.849195,16.102489 C114.125915,21.1083455 113.136164,25.0673499 112.146413,28.3792094 C111.689605,29.9590044 110.947291,30.9106881 110.395315,31.6339678 C110.147877,31.9575403 109.805271,32.3191801 109.767204,32.6046852 C109.74817,33.0234261 109.95754,33.1947291 110.547584,33.1947291 C111.898975,33.2327965 116.524158,31.3484627 117.380673,28.2459736 C118.103953,25.8477306 118.218155,24.4582723 118.827233,21.6603221 L118.770132,21.6032211 L118.827233,21.6222548 C119.074671,21.8696925 120.235725,22.7452416 122.043924,22.7452416 C127.183016,22.7452416 129.961933,17.7393851 129.961933,14.1039531 C129.942899,11.2869693 128.286969,9.55490483 125.660322,9.55490483 L125.660322,9.55490483 Z M121.054173,20.6515373 C120.178624,20.6515373 119.702782,20.1947291 119.702782,19.4333821 C119.702782,17.682284 120.36896,15.2650073 120.863836,14.1800878 C121.396779,12.9238653 122.272328,12.124451 123.090776,12.124451 C124.023426,12.124451 124.385066,12.6193265 124.385066,13.704246 C124.4041,15.9692533 123.395315,20.6515373 121.054173,20.6515373 L121.054173,20.6515373 Z" id="Shape"></path>
                    <path d="M108.415813,9.55490483 C102.686676,9.55490483 99.489019,13.5900439 99.489019,17.6442167 C99.489019,20.9941435 101.868228,23.1068814 105.522694,23.1068814 C110.661786,23.1068814 113.612006,19.090776 113.612006,14.4275256 C113.63104,11.5534407 111.499268,9.55490483 108.415813,9.55490483 L108.415813,9.55490483 Z M105.598829,20.6515373 C104.72328,20.6515373 104.247438,20.1947291 104.247438,19.4333821 C104.247438,17.682284 104.913616,15.2650073 105.408492,14.1800878 C105.941435,12.9238653 106.816984,12.124451 107.635432,12.124451 C108.568082,12.124451 108.929722,12.6193265 108.929722,13.704246 C108.948755,15.9692533 107.939971,20.6515373 105.598829,20.6515373 L105.598829,20.6515373 Z" id="Shape"></path>
                </g>
            </g>
        </g>
    </g>
</svg>