<?xml version="1.0" encoding="utf-8"?>
<!-- Generator: Adobe Illustrator 18.1.1, SVG Export Plug-In . SVG Version: 6.00 Build 0)  -->
<svg version="1.1" xmlns="http://www.w3.org/2000/svg" xmlns:xlink="http://www.w3.org/1999/xlink" x="0px" y="0px"
	 viewBox="0 0 54.4 62.2" enable-background="new 0 0 54.4 62.2" xml:space="preserve">
<g id="Layer_1">
</g>
<g id="Layer_2">
	<g>
		<g>
			<circle fill="none" stroke="#8C8C8C" stroke-width="1.5" stroke-miterlimit="10" cx="21.1" cy="37" r="2.2"/>
		</g>
		<path fill="none" stroke="#8C8C8C" stroke-width="1.5" stroke-miterlimit="10" d="M27.7,39.6c0.1-4.5-2.5-9-7-9.1
			s-7.7,3.4-8.4,7.9c-0.7,4.4,1.6,17.4,7.5,17.2c3.2-0.1-0.8-3.3,3.2-9.7C23.9,44.9,27,43.1,27.7,39.6z"/>
		<path fill="none" stroke="#565F73" stroke-width="1.5" stroke-miterlimit="10" d="M24.1,45.8"/>
		<path fill="none" stroke="#8C8C8C" stroke-width="1.5" stroke-linecap="round" stroke-miterlimit="10" d="M15.3,39.3
			c0,0-1,7.7,3.2,12.6"/>
		
			<path fill="none" stroke="#8C8C8C" stroke-width="1.5" stroke-linecap="round" stroke-linejoin="round" stroke-miterlimit="10" d="
			M35.2,31.9c0-1.1-1-1.9-1.9-1.7c-1,0.1-1.7,1.3-1.3,2.3c0.1,0.1,0.3,1,1.4,0.9l-0.4,4"/>
		
			<path fill="none" stroke="#8C8C8C" stroke-width="1.5" stroke-linecap="round" stroke-linejoin="round" stroke-miterlimit="10" d="
			M35.4,30.6c0.9-0.4,2.1,0.2,2.3,1.2c0.2,0.9-0.6,1.9-1.7,2l-0.4,3.6"/>
		
			<path fill="none" stroke="#8C8C8C" stroke-width="1.5" stroke-linecap="round" stroke-linejoin="round" stroke-miterlimit="10" d="
			M30.8,37.4c0,0,2,3.8-3.3,9.4"/>
		
			<path fill="none" stroke="#8C8C8C" stroke-width="1.5" stroke-linecap="round" stroke-linejoin="round" stroke-miterlimit="10" d="
			M27.5,46.8c-1.4,1.3-2.3,3.1-2.3,5.1c0,3.8,3.1,6.8,6.8,6.8c3.8,0,6.8-3.1,6.8-6.8c0-1.4-0.4-2.6-1.1-3.7"/>
		
			<path fill="none" stroke="#8C8C8C" stroke-width="1.5" stroke-linecap="round" stroke-linejoin="round" stroke-miterlimit="10" d="
			M37.7,38.2c0,0-2.9,3.9,0.5,10.9"/>
		
			<line fill="none" stroke="#8C8C8C" stroke-width="1.5" stroke-linecap="round" stroke-linejoin="round" stroke-miterlimit="10" x1="30.8" y1="37.4" x2="33.4" y2="41.4"/>
		<circle fill="#8C8C8C" cx="29.3" cy="48.4" r="0.7"/>
		<circle fill="#8C8C8C" cx="30" cy="50.5" r="0.7"/>
		<circle fill="#8C8C8C" cx="27.7" cy="50.5" r="0.7"/>
	</g>
</g>
</svg>
