<?xml version="1.0" encoding="utf-8"?>
<!-- Generator: Adobe Illustrator 18.0.0, SVG Export Plug-In . SVG Version: 6.00 Build 0)  -->
<!DOCTYPE svg PUBLIC "-//W3C//DTD SVG 1.1//EN" "http://www.w3.org/Graphics/SVG/1.1/DTD/svg11.dtd">
<svg version="1.1" id="Layer_1" xmlns="http://www.w3.org/2000/svg" xmlns:xlink="http://www.w3.org/1999/xlink" x="0px" y="0px"
	 viewBox="0 0 32 32" enable-background="new 0 0 32 32" xml:space="preserve">
<g>
	<circle fill="none" stroke="#bdb7b3" stroke-width="2" stroke-miterlimit="10" cx="16" cy="16" r="15"/>
	<path fill="#bdb7b3" d="M15.9,4.3C9.4,4.3,4.2,9.6,4.2,16c0,4.8,2.9,8.9,7,10.7c0-0.8,0-1.8,0.2-2.7c0.2-0.9,1.5-6.4,1.5-6.4
		s-0.4-0.7-0.4-1.8c0-1.7,1-3,2.3-3c1.1,0,1.6,0.8,1.6,1.8c0,1.1-0.7,2.7-1,4.1c-0.3,1.2,0.6,2.2,1.8,2.2c2.2,0,3.7-2.8,3.7-6.2
		c0-2.6-1.7-4.5-4.9-4.5c-3.5,0-5.7,2.6-5.7,5.6c0,1,0.3,1.7,0.8,2.3c0.2,0.3,0.2,0.4,0.2,0.6C11.1,19,11,19.5,11,19.7
		c-0.1,0.3-0.3,0.4-0.6,0.3C8.8,19.3,8,17.6,8,15.5c0-3.3,2.8-7.3,8.3-7.3c4.5,0,7.4,3.2,7.4,6.7c0,4.6-2.5,8-6.3,8
		c-1.3,0-2.4-0.7-2.8-1.5c0,0-0.7,2.7-0.8,3.2c-0.2,0.9-0.7,1.8-1.2,2.5c1,0.3,2.2,0.5,3.3,0.5c6.4,0,11.7-5.2,11.7-11.7
		C27.5,9.6,22.3,4.3,15.9,4.3z"/>
</g>
</svg>
