<?xml version="1.0" encoding="utf-8"?>
<!-- Generator: Adobe Illustrator 18.0.0, SVG Export Plug-In . SVG Version: 6.00 Build 0)  -->
<!DOCTYPE svg PUBLIC "-//W3C//DTD SVG 1.1//EN" "http://www.w3.org/Graphics/SVG/1.1/DTD/svg11.dtd">
<svg version="1.1" id="Layer_1" xmlns="http://www.w3.org/2000/svg" xmlns:xlink="http://www.w3.org/1999/xlink" x="0px" y="0px"
	 viewBox="0 0 32 32" enable-background="new 0 0 32 32" xml:space="preserve">
<g>
	<circle fill="none" stroke="#bdb7b3" stroke-width="2" stroke-miterlimit="10" cx="16" cy="16" r="15"/>
	<path fill="#bdb7b3" d="M9.9,8.2h12.3c1.2,0,2.1,1,2.1,2.1v12.3c0,1.2-1,2.1-2.1,2.1H9.9c-1.2,0-2.1-1-2.1-2.1V10.3
		C7.7,9.1,8.7,8.2,9.9,8.2z M19.8,10c-0.4,0-0.7,0.3-0.7,0.7v1.8c0,0.4,0.3,0.7,0.7,0.7h1.9c0.4,0,0.7-0.3,0.7-0.7v-1.8
		c0-0.4-0.3-0.7-0.7-0.7H19.8z M22.4,15.1h-1.5c0.1,0.5,0.2,0.9,0.2,1.4c0,2.7-2.3,5-5.1,5c-2.8,0-5.1-2.2-5.1-5
		c0-0.5,0.1-1,0.2-1.4H9.6v7c0,0.4,0.3,0.7,0.7,0.7h11.5c0.4,0,0.7-0.3,0.7-0.7V15.1z M16,13.2c-1.8,0-3.3,1.4-3.3,3.2
		c0,1.8,1.5,3.2,3.3,3.2c1.8,0,3.3-1.4,3.3-3.2C19.3,14.6,17.9,13.2,16,13.2z"/>
</g>
</svg>
